<?xml version="1.0" encoding="utf-8"?>
<!-- Generator: Adobe Illustrator 22.1.0, SVG Export Plug-In . SVG Version: 6.00 Build 0)  -->
<svg version="1.1" id="Layer_1" xmlns="http://www.w3.org/2000/svg" xmlns:xlink="http://www.w3.org/1999/xlink" x="0px" y="0px"
	 viewBox="0 0 1920 1920" style="enable-background:new 0 0 1920 1920;" xml:space="preserve">
<style type="text/css">
	.st0{fill:none;}
	.st1{fill:#EF4164;}
	.st2{fill:url(#SVGID_1_);}
	.st3{fill:#2B3990;}
	.st4{fill:#FFFFFF;}
	.st5{fill:#CCCCCC;}
	.st6{fill:#666666;}
	.st7{fill:url(#SVGID_2_);}
	.st8{fill:#EF4136;}
	.st9{fill:url(#SVGID_3_);}
</style>
<path d="M1825,1104.4c-1.2-0.8-2.5-1.6-3.7-2.3l-10.1-2.5c-3.5,0.5-7.2,0.8-10.6,1.7c-63.9,16-127.8,32.1-191.7,48.1
	c18.7-291,37.4-582,56.1-873l4-61.5c2.2-18.2-3.2-36.2-14.8-49.4c-11.4-13-27.6-20.3-45.5-20.5c-18.1-0.3-36.6-0.1-54.4,0
	c-3.4,0-6.7,0-10.1,0c1.5-16.3,1.6-41.2-18-62.3c-22-23.7-51.5-23.4-65.6-23.3l-20.2,0.2c-65.1,0.7-132.1,1.4-198.5,2.2
	c-8.8-10.9-19.6-20.1-32.1-27.4c-20.2-11.8-43.5-17.6-67.5-16.8h-0.2c-2.8,0.1-5.7,0.2-8.5,0.3c-2.8,0.1-5.6,0.2-8.4,0.3
	c-17.3,0.6-35.7,1.1-53.4,0.7c-2.8-0.1-5.7,0-8.4,0c-26.3,0.9-51.9,8.9-74.1,23.1c-9.9,6.4-19.1,14-27.5,22.7l-42.5,0.5
	c-61.2,0.7-122.4,1.3-183.6,2c-2,0-3.8,0-5.4,0.1C720.4,67.6,694,68.5,673,89c-19.1,18.5-21.8,42-22.9,52.1
	c-0.2,1.7-0.3,3.5-0.5,5.2c-1.3-0.1-2.6-0.1-4,0l-6.4,0.1c-18.9,0.3-38.4,0.7-56.2-0.1c-34.9-1.5-66.8,23.7-72.7,57.4
	c-20.4,116.8-39.8,237.7-58.5,354.7c-10.5,65.3-21.3,132.7-32.1,198.7c-8,48.5-16,97.1-24,145.6c-77.5,11.9-148.9,47.9-205.4,104.4
	c-70.1,70.1-108.7,163.3-108.7,262.5c0,49.8,9.8,98.2,28.4,142.8c-24.6,58-32.7,111.9-23.8,160.5c9.1,49.9,35.6,93.5,78.8,129.5
	c57.8,48.1,144.1,81.7,256.4,99.8c60.9,9.8,128.6,14.8,200.3,14.8c45.8,0,93.2-2,141.4-6.1c120.7-10.1,242.1-32.6,351.2-64.9
	c102.9-30.5,192.2-69.1,260.2-112.5c24.7,40.5,49.4,81,74.2,121.4c0.6,1,1.2,2,1.9,3c12.2,17.9,38.9,16.6,49.2-2.4
	c10.2-18.8,20.4-37.6,30.7-56.4c56.5-103.7,113.1-207.4,169.6-311.1c44.9-82.4,89.8-164.7,134.7-247.1
	C1841.4,1128.1,1837.3,1112.3,1825,1104.4z M813,1537.2c-51.3,15.4-100.1,27.4-146.3,35.9c17.2-12.2,33.4-25.8,48.6-41
	c19.3-19.3,36.2-40.3,50.5-62.7c49.5,11.3,99,22.6,148.5,33.9C881.7,1515.2,847.8,1526.8,813,1537.2z"/>
<g>
	<path class="st0" d="M1195.7,332.7c-3.3-0.1-6.6-0.2-9.9-0.2C1189.1,332.5,1192.4,332.6,1195.7,332.7z"/>
	<path class="st0" d="M850,320.4c-0.6-0.1-1.2-0.2-1.8-0.3C848.8,320.2,849.4,320.3,850,320.4z"/>
	<path class="st0" d="M845.2,319.5c-0.7-0.1-1.4-0.3-2.1-0.4C843.8,319.2,844.5,319.4,845.2,319.5z"/>
	<path class="st0" d="M1345.7,322.5c0,0-0.1,0-0.1,0C1345.6,322.5,1345.6,322.5,1345.7,322.5z"/>
	<path class="st0" d="M1351.8,320.3C1351.8,320.3,1351.8,320.3,1351.8,320.3C1351.8,320.3,1351.8,320.3,1351.8,320.3z"/>
	<path class="st0" d="M840.2,318.5c-1.4-0.3-2.8-0.6-4.2-1C837.4,317.9,838.8,318.2,840.2,318.5z"/>
	<path class="st0" d="M828.9,315.7c-1.3-0.4-2.6-0.7-3.9-1.1C826.3,315,827.6,315.4,828.9,315.7z"/>
	<path class="st0" d="M824.1,314.4c-1.7-0.5-3.4-1-5-1.6C820.7,313.3,822.4,313.9,824.1,314.4z"/>
	<path class="st0" d="M833.9,317c-1-0.2-2-0.5-3-0.8C831.9,316.5,832.9,316.8,833.9,317z"/>
	<path class="st0" d="M1414.1,281c-0.7,0.6-1.3,1.2-2,1.8C1412.8,282.3,1413.5,281.6,1414.1,281z"/>
	<path class="st0" d="M1370.5,312c-0.2,0.1-0.4,0.2-0.5,0.3C1370.1,312.2,1370.3,312.1,1370.5,312z"/>
	<path class="st0" d="M1450.2,237.5c-0.8,1.3-1.7,2.6-2.5,3.9C1448.6,240.1,1449.4,238.8,1450.2,237.5z"/>
	<path class="st0" d="M1452.2,234.2c-0.4,0.7-0.8,1.4-1.2,2.1C1451.4,235.6,1451.8,234.9,1452.2,234.2z"/>
	<path class="st0" d="M1447.3,242c-7.6,11.5-16.4,22.4-26.3,32.4C1430.9,264.4,1439.7,253.5,1447.3,242z"/>
	<path class="st0" d="M1419.5,275.9c-0.9,0.9-1.9,1.9-2.8,2.8C1417.6,277.8,1418.6,276.8,1419.5,275.9z"/>
	<path class="st0" d="M1402.8,290.9C1402.8,290.9,1402.8,290.9,1402.8,290.9C1402.8,290.9,1402.8,290.9,1402.8,290.9z"/>
	<path class="st0" d="M1376.6,308.9c-0.2,0.1-0.4,0.2-0.5,0.3C1376.3,309.1,1376.4,309,1376.6,308.9z"/>
	<path class="st0" d="M818.1,312.5c-1.5-0.5-2.9-1-4.4-1.5C815.1,311.5,816.6,312,818.1,312.5z"/>
	<path class="st0" d="M1364.1,315.1c0,0-0.1,0-0.1,0.1C1364,315.1,1364.1,315.1,1364.1,315.1z"/>
	<path class="st0" d="M1480.5,123.4c-1.6-1.8-4-2.8-7.5-3.2C1476.6,120.6,1479,121.6,1480.5,123.4z"/>
	<path class="st0" d="M771.2,287.7c6.2,4.8,12.8,9.3,19.9,13.5c3.7,1.9,7.4,3.6,11.1,5.2c-3.7-1.6-7.4-3.3-11.1-5.2
		C784.1,297,777.4,292.5,771.2,287.7z"/>
	<path class="st0" d="M1752.5,1170.5C1752.5,1170.5,1752.5,1170.5,1752.5,1170.5c-0.1,0-0.1,0-0.2,0L1752.5,1170.5
		C1752.4,1170.6,1752.5,1170.6,1752.5,1170.5z"/>
	<path class="st0" d="M1588.1,1472.2C1588.1,1472.2,1588.1,1472.2,1588.1,1472.2c38-69.7,76-139.5,114.1-209.3
		C1664.1,1332.8,1626.1,1402.5,1588.1,1472.2z"/>
	<path class="st0" d="M1660.4,1238c0.3-0.1,0.6-0.2,0.9-0.3c0,0,0,0,0,0.1c0,0,0-0.1,0-0.1C1661,1237.8,1660.7,1237.9,1660.4,1238z"
		/>
	<path class="st0" d="M812.9,310.6c-3.6-1.3-7.1-2.7-10.7-4.3C805.7,307.9,809.3,309.3,812.9,310.6z"/>
	<path class="st0" d="M750.1,268.3c2.5,2.7,5,5.3,7.7,7.8C755.1,273.6,752.6,271,750.1,268.3z"/>
	<path class="st0" d="M761.9,279.9c-1.3-1.2-2.6-2.4-3.9-3.6C759.3,277.6,760.6,278.8,761.9,279.9z"/>
	<path class="st0" d="M749.6,267.7c-2.4-2.6-4.7-5.3-6.9-8.1C744.9,262.4,747.2,265.1,749.6,267.7z"/>
	<path class="st0" d="M771.1,287.5c-3-2.4-6-4.8-8.8-7.3C765.1,282.7,768,285.2,771.1,287.5z"/>
	<path class="st0" d="M740.8,257.3c0.5,0.6,1,1.2,1.4,1.8c-0.5-0.6-0.9-1.2-1.3-1.7C740.9,257.3,740.8,257.3,740.8,257.3z"/>
	<path class="st1" d="M1417.7,1331.5c19.1-7.4,38.2-14.7,57.3-22.1C1455.9,1316.8,1436.8,1324.2,1417.7,1331.5
		C1417.7,1331.5,1417.7,1331.5,1417.7,1331.5z"/>
	<linearGradient id="SVGID_1_" gradientUnits="userSpaceOnUse" x1="1087.1838" y1="293.0943" x2="911.1838" y2="1569.0944">
		<stop  offset="0" style="stop-color:#27AAE1"/>
		<stop  offset="1" style="stop-color:#2B3990"/>
	</linearGradient>
	<path class="st2" d="M822.6,1301.7c71.6,13.9,143.2,27.9,214.2,42.2c28,16.4,56.1,32.7,84.2,49c6.8,4,13.6,7.9,20.4,11.9
		c-20.7,10.3-45.6,22.3-73.7,35.1L807,1381.1C815,1355.5,820.3,1328.9,822.6,1301.7z M598.3,505c3-19.6,18.6-32.9,39.5-29.9
		c134,8.4,268.1,16.9,402.1,25.3c134,8.4,268.1,16.9,402.1,25.3c22.2,1.3,35.3,18.4,31.9,40c-15.4,209.7-30.8,419.4-46.2,629.2
		c27.6-6.9,55.2-13.9,82.8-20.8l67.5-968.9c-7.9,0-15.8,0.1-23.6,0.1c-6,0-11.9,0.1-17.8,0.1c-1.2,0-1.8,0.1-2.1,0.2
		c-0.3,0.3-0.9,1.2-1.6,2.7c-1.7,3.9-3.3,8.2-4.9,12.7c-1.6,4.5-3.4,9.2-5.4,14c-18.2,43.3-46,80.5-80.5,107.7
		c-0.2,0.2-0.5,0.4-0.7,0.5c-29.9,22.2-75.4,51.1-132.6,53c-3.4,0.1-6.9,0.1-10.4,0.1c-27.7-0.7-55.4-1.4-83.2-2.1
		c-82.5-2-167-4-250.2-7.2c-28.6-0.8-56.9-1.7-85-2.6l-1,0l-1-0.1c-9.3-0.6-18.1-1.5-26.7-2.6c-59.3-4.2-112.8-28.7-150.9-69.2
		c-27.2-28.9-44.4-64.1-51.1-104.6c-0.1-0.5-0.2-0.9-0.2-1.2c-0.7-0.1-1.5-0.1-2.6-0.1l-6.4,0.1c-19.8,0.3-40.3,0.7-60-0.2
		c-4-0.2-8.3,3.2-9,7.1c-20.3,116.4-39.6,237.2-58.4,353.9c-10.5,65.3-21.3,132.9-32.2,199c-7.2,43.9-14.5,87.9-21.7,131.9
		c26.9,0.4,53.4,3.7,79,9.7C558.1,773.8,578.1,639.1,598.3,505z"/>
	<path class="st3" d="M1359.7,281.7c-37.1,21.1-74.6,29.7-117.5,28.6C1114.6,307.4,987,304,859.5,300c-33.1-2.1-61.4-7.8-91.1-22.8
		c-10-5.9-19.2-12.5-27.5-19.8c0.4,0.6,0.9,1.2,1.3,1.7c0.1,0.2,0.3,0.3,0.4,0.5c2.2,2.8,4.5,5.5,6.9,8.1c0.2,0.2,0.4,0.4,0.5,0.6
		c2.5,2.7,5,5.3,7.7,7.8c0.1,0.1,0.1,0.1,0.2,0.2c1.3,1.2,2.6,2.4,3.9,3.6c0.1,0.1,0.2,0.2,0.3,0.3c2.8,2.5,5.8,5,8.8,7.3
		c0.1,0,0.1,0.1,0.2,0.1c6.2,4.8,12.8,9.3,19.9,13.5c3.7,1.9,7.4,3.6,11.1,5.2c0,0,0,0,0,0c3.6,1.5,7.1,3,10.7,4.3
		c0.3,0.1,0.5,0.2,0.8,0.3c1.5,0.5,2.9,1,4.4,1.5c0.3,0.1,0.6,0.2,0.9,0.3c1.7,0.6,3.4,1.1,5,1.6c0.3,0.1,0.6,0.2,1,0.3
		c1.3,0.4,2.6,0.7,3.9,1.1c0.7,0.2,1.3,0.4,2,0.5c1,0.3,2,0.5,3,0.8c0.7,0.2,1.4,0.4,2.1,0.5c1.4,0.3,2.8,0.6,4.2,1
		c0.9,0.2,1.9,0.4,2.9,0.6c0.7,0.1,1.4,0.3,2.1,0.4c1,0.2,2,0.4,2.9,0.5c0.6,0.1,1.2,0.2,1.8,0.3c2.4,0.4,4.9,0.8,7.3,1.1
		c0.6,0,1.3,0.1,1.9,0.1c35.1,1.9,70.9,3.5,106.9,4.9c73.2,2.2,146.5,4.1,219.7,5.9c3.3,0.1,6.6,0.2,9.9,0.2c23,0.6,46,1.1,69.1,1.6
		c5.5,0.1,10.9,0.1,16.2-0.1c22.7-0.8,43.9-4.5,64.6-11.7c0,0,0.1,0,0.1,0c2-0.7,4.1-1.5,6.1-2.2c0,0,0,0,0,0
		c4.1-1.6,8.1-3.3,12.2-5.1c0,0,0.1,0,0.1-0.1c1.9-0.9,3.9-1.8,5.8-2.8c0.2-0.1,0.4-0.2,0.5-0.3c1.9-0.9,3.8-1.9,5.6-2.9
		c0.2-0.1,0.4-0.2,0.5-0.3c1.9-1,3.8-2.1,5.7-3.2c7.2-4.6,14-9.5,20.4-14.8c0,0,0,0,0,0c3.2-2.6,6.4-5.3,9.4-8.1
		c0.7-0.6,1.3-1.2,2-1.8c0.8-0.8,1.7-1.6,2.5-2.4c1-0.9,1.9-1.8,2.8-2.8c0.5-0.5,1-1,1.6-1.5c9.9-10,18.6-20.8,26.3-32.4
		c0.1-0.2,0.3-0.4,0.4-0.6c0.9-1.3,1.7-2.6,2.5-3.9c0.2-0.4,0.5-0.8,0.7-1.1c0.4-0.7,0.8-1.4,1.2-2.1c16.2-26.8,26.4-57.2,29.9-89.6
		c1.3-11.6,1.4-17.9-1.5-21.3c-1.6-1.8-4-2.8-7.5-3.2c-3.1-0.4-7-0.5-11.9-0.4c-0.5,0-1,0-1.6,0c0,0.3-0.1,0.6-0.1,1
		C1452.2,187.2,1416.9,244.9,1359.7,281.7z"/>
	<path class="st3" d="M794.9,1414.1c72.8,16.6,145.7,33.3,218.5,49.9c19.1-8.1,37.3-16.2,54.3-23.9L807,1381.1
		C803.5,1392.3,799.5,1403.3,794.9,1414.1z"/>
	<path class="st3" d="M1546,1165.1c19.1-297.5,38.3-595,57.4-892.4l4-62.5c0-0.7,0.1-1.5,0.2-2.2c0.2-1.3,0-2.2-0.1-2.7
		c-9.7-0.1-19.6-0.1-29.4-0.1l-67.5,968.9C1522.4,1171.1,1534.2,1168.1,1546,1165.1z"/>
	<path class="st4" d="M1442,525.7c-134-8.5-268.1-16.9-402.1-25.3c-134-8.5-268.1-16.9-402.1-25.3c-20.9-3-36.5,10.3-39.5,29.9
		c-20.2,134.1-40.2,268.8-60.4,403.1c65.7,15.4,126.2,48.5,175.4,97c109.1,17.8,218.9,36.6,328.3,54.9c22.8,5.4,42.3,29.2,39.2,53
		c-1.9,23.8-28,39.7-49.9,36.3c-61.5-9.5-125.6-22.7-188.4-34.1c-18.9-3.4-37.9-7-56.9-10.6c25.2,50.6,38.5,106.8,38.5,164.9
		c0,10.8-0.5,21.5-1.4,32.1c71.6,13.9,143.2,27.9,214.2,42.2c-0.4-0.2-0.8-0.4-1.2-0.7c-11.1-6.5-16.2-16.9-14.4-29.4
		c1.6-10.6,10.2-19.5,22-22.4c76.2-19.1,152.4-38.3,228.6-57.4c52-13.1,103.9-26.1,155.9-39.2c15.4-209.7,30.8-419.4,46.2-629.2
		C1477.4,544.1,1464.2,527,1442,525.7z M1106.1,897.4c-3.1,25-28.7,44.9-54.6,40.3c-57.8-10.2-119.6-17-179.5-25.4
		c-59.3-8.3-119.7-18-178-25c-20.5-2.5-39.6-17.4-44.4-36.6c-4.5-18.4,7.9-37.5,25.6-45.4c8.9-4,20.9-5.3,30.9-4.1
		c118.5,14.3,236.9,29.1,355.4,44C1087.3,847.6,1109.2,872.4,1106.1,897.4z M1123.2,678.1c-2.5,21.9-25.4,41.4-46.9,40.1
		c-59.6-3.8-123.3-12.4-184.9-18.6c-59.7-6-120.6-13.5-179.1-18.1c-21.1-1.7-37.7-20.6-37.3-40.9c0.4-23.8,23.1-44.3,47.3-42.7
		c121.6,10.1,243.2,20.5,364.7,31.1C1109,632.6,1125.6,656.6,1123.2,678.1z M1333.5,1158.7c-2.4,23.4-24.1,40.8-47.7,36.9
		c-11.4-1.9-23.1-4.2-34.7-6.3c-11.1-2-22.1-4-33.2-6c-25-4.5-42.9-27-41.5-51.8c-0.9-25.5,24.9-45.4,49.9-40.8
		c22.9,4.1,46,7.7,68.9,11.7C1321,1106.5,1335.9,1135.8,1333.5,1158.7z M1354.2,940.5c-4.3,20.9-29.8,34.3-49.2,32.6
		c-10.1-0.9-20.8-2.9-31.2-4.3c-8.9-1.3-17.8-2.5-26.7-3.8c-23.2-3.3-47.4-22.3-46.8-47c-1.5-26.4,19.8-50.3,47.6-48.8
		c25.9,1.9,50.6,6.3,75.6,12.2C1349.6,887.4,1359.3,917.5,1354.2,940.5z M1367.2,701.8c-1.8,23.3-21.8,44.2-46.8,41.1
		c-10.4-1.3-21.4-2.2-32-3.2c-11.2-1.1-22.6-2.5-33.5-3.4c-24.2-1.9-40.2-24.8-38.9-47.3c0.9-25.2,20.3-47.4,47.3-45.2
		c21.5,1.8,43.4,3.5,65.1,5.6C1355.5,650.6,1369.7,678.1,1367.2,701.8z"/>
	<path class="st4" d="M311.9,1663.2c5.2,1.9,10.6,3.7,16,5.4C322.5,1666.9,317.2,1665.1,311.9,1663.2z"/>
	<path class="st4" d="M832.4,1598.2c-119.1,36-226.7,54.1-320.2,54.1c-8.6,0-17-0.2-25.3-0.5c-128.5-4.7-229.3-45.8-299.5-122
		l0.3-0.3c-2-2-3.9-4-5.8-6c0,0.1,0.1,0.2,0.1,0.3c2,5.4,4.3,10.8,7,16.1c2.7,5.3,5.8,10.5,9.1,15.5c3.4,5.1,7.1,10,11,14.8
		c3.9,4.8,8.1,9.5,12.5,14.1c4.4,4.6,8.9,9,13.7,13.3c18.9,17.3,40.4,32.4,63,46c11.3,6.8,22.9,13.1,34.8,19
		c11.9,5.9,24,11.5,36.4,16.3l-0.1,0.5c210.7,45.6,524.8-23.7,730.6-82.2c24.9-17.2,56.6-38.9,86.9-59.5c0.3-2.2,0.5-4.5,0.8-6.7
		l-159.1,37.2c33.1-23.2,115-79.1,168.6-115.6c0.2-1.5,0.4-3.1,0.6-4.6C1130.6,1483,991.6,1550.1,832.4,1598.2z"/>
	<path class="st5" d="M369.3,1679.5l-0.1,0.5c-13.1-2.9-26-6.5-38.8-10.6c-0.8-0.3-1.6-0.5-2.5-0.8c-5.4-1.7-10.8-3.5-16-5.4
		c-6.6-2.3-13.1-4.8-19.6-7.4c-25.1-10.2-49.6-22.3-72.8-37.6c-5.8-3.8-11.5-7.8-17.1-12.1c-5.6-4.3-11.1-8.7-16.3-13.5
		c-5.3-4.8-10.4-9.8-15.4-15.2c-4.9-5.4-9.6-11-14-17c-3.6-4.8-6.9-9.9-9.9-15.1c3.1,42,22.7,77.8,59,108
		c48.2,40.1,126.2,69.8,225.6,85.9c94.8,15.3,207.5,18.1,326.1,8.1c149.6-12.6,294.8-43.9,414.5-87.4c0.5-4.5,1.1-9.5,1.7-14.6
		l-66,15.5c15.4-10.8,41.4-28.7,70.1-48.4c0.6-4.8,1-8.1,1.1-8.8c0.4-3.5,0.8-6.9,1.3-10.4l-111.8,26.2c8-5.6,18.9-13.2,31.5-21.9
		C894.1,1655.7,580,1725.1,369.3,1679.5z"/>
	<path class="st6" d="M1061.6,845.2c-118.4-14.9-236.9-29.7-355.4-44c-10-1.2-22,0.1-30.9,4.1c-17.7,7.9-30.1,27-25.6,45.4
		c4.7,19.2,23.9,34.1,44.4,36.6c58.2,7,118.7,16.7,178,25c59.8,8.4,121.7,15.2,179.5,25.4c25.9,4.6,51.5-15.3,54.6-40.3
		C1109.2,872.4,1087.3,847.6,1061.6,845.2z"/>
	<path class="st6" d="M1087,628.8c-121.6-10.6-243.1-21-364.7-31.1c-24.2-1.6-46.9,18.9-47.3,42.7c-0.4,20.3,16.2,39.3,37.3,40.9
		c58.5,4.6,119.4,12.1,179.1,18.1c61.6,6.2,125.3,14.9,184.9,18.6c21.5,1.4,44.4-18.2,46.9-40.1C1125.6,656.6,1109,632.6,1087,628.8
		z"/>
	<path class="st6" d="M1030.8,1149.3c22,3.4,48-12.6,49.9-36.3c3.1-23.7-16.3-47.5-39.2-53c-109.4-18.3-219.2-37-328.3-54.9
		c0.7,0.6,1.3,1.3,2,1.9c29,29,52.6,61.9,70.3,97.6c19,3.6,38,7.1,56.9,10.6C905.2,1126.6,969.3,1139.9,1030.8,1149.3z"/>
	<path class="st6" d="M1323.6,881.3c-25-5.9-49.7-10.3-75.6-12.2c-27.9-1.5-49.1,22.4-47.6,48.8c-0.6,24.8,23.6,43.7,46.8,47
		c8.9,1.3,17.8,2.5,26.7,3.8c10.4,1.5,21,3.4,31.2,4.3c19.4,1.7,44.9-11.7,49.2-32.6C1359.3,917.5,1349.6,887.4,1323.6,881.3z"/>
	<path class="st6" d="M1295.4,1102.3c-22.9-4-46-7.6-68.9-11.7c-25-4.6-50.9,15.4-49.9,40.8c-1.4,24.8,16.5,47.3,41.5,51.8
		c11,2,22.1,4,33.2,6c11.6,2.1,23.2,4.4,34.7,6.3c23.6,3.9,45.3-13.5,47.7-36.9C1335.9,1135.8,1321,1106.5,1295.4,1102.3z"/>
	<linearGradient id="SVGID_2_" gradientUnits="userSpaceOnUse" x1="1096.1718" y1="26.5172" x2="1062.1718" y2="366.5172">
		<stop  offset="0" style="stop-color:#27AAE1"/>
		<stop  offset="1" style="stop-color:#2B3990"/>
	</linearGradient>
	<path class="st7" d="M740.8,257.3c0,0,0.1,0.1,0.1,0.1c8.3,7.2,17.5,13.8,27.5,19.8c29.7,15,58,20.7,91.1,22.8
		c127.5,4.1,255.1,7.4,382.6,10.4c42.9,1.1,80.4-7.5,117.5-28.6c57.2-36.8,92.5-94.6,99.8-161c0-0.3,0.1-0.6,0.1-1
		c-80.1,0.8-160.3,1.6-240.4,2.7c-8.6,0.1-13.7-1.2-18.1-10.4c-2.1-5.1-5-9.7-8.4-13.7c-4.3-5.1-9.5-9.3-15.2-12.5
		c-9.8-5.5-21.3-8.3-33.1-7.9c-0.1,0-0.2,0-0.2,0c-5.6,0.2-11.3,0.4-16.9,0.6c-19,0.6-38.1,1.2-56.9,0.7c-1.7-0.1-3.3,0-4.9,0
		c-31.3,1-57,19-72.9,45.5c-6.4,0.1-11.7,0.1-17,0.2c-79.7,0.9-159.3,1.7-239,2.6c-1.4,0-2.7,0-4,0.1c-16.2,0.5-19.1,3.7-21,20.1
		C706.6,189.3,717.5,226.9,740.8,257.3z M1096.6,132.7c23.8,0,44.2,14.8,52.5,35.7c2.5,6.4,3.9,13.4,3.9,20.8
		c0,31.2-25.3,56.4-56.4,56.4c-16.6,0-31.6-7.2-41.9-18.7c-9-10-14.5-23.3-14.5-37.8C1040.2,158,1065.4,132.7,1096.6,132.7z"/>
	<path class="st6" d="M1328.5,649.4c-21.7-2.1-43.6-3.8-65.1-5.6c-26.9-2.2-46.4,20-47.3,45.2c-1.3,22.5,14.7,45.4,38.9,47.3
		c10.9,0.9,22.3,2.3,33.5,3.4c10.7,1.1,21.7,1.9,32,3.2c25,3.1,45-17.8,46.8-41.1C1369.7,678.1,1355.5,650.6,1328.5,649.4z"/>
	<path class="st3" d="M1040.2,189.2c0,14.5,5.5,27.8,14.5,37.8c-2.5-6.4-4-13.5-4-20.8c0-31.2,25.3-56.4,56.4-56.4
		c16.7,0,31.6,7.2,42,18.7c-8.3-20.9-28.7-35.7-52.5-35.7C1065.4,132.7,1040.2,158,1040.2,189.2z"/>
	<path class="st4" d="M1107.2,149.7c-31.2,0-56.4,25.3-56.4,56.4c0,7.3,1.4,14.4,4,20.8c10.3,11.5,25.3,18.7,41.9,18.7
		c31.2,0,56.4-25.3,56.4-56.4c0-7.3-1.4-14.3-3.9-20.8C1138.8,156.9,1123.8,149.7,1107.2,149.7z"/>
	<path class="st4" d="M1752.5,1170.5C1752.5,1170.6,1752.4,1170.6,1752.5,1170.5L1752.5,1170.5l-509.1,174.2l55.5,32.6
		c6.9-2.7,13.9-5.3,20.8-8c32.7-12.6,65.4-25.2,98-37.8c0,0,0,0,0,0c19.1-7.4,38.2-14.7,57.3-22.1c61.4-23.7,122.8-47.3,184.3-71
		c0.4-0.2,0.8-0.3,1.2-0.4c0.3-0.1,0.6-0.2,0.9-0.3c0,0,0,0,0,0.1c0,0.1,0.1,0.2,0.1,0.2l-228.7,267.4l73.7,116.4
		c27.2-49.8,54.3-99.7,81.5-149.6c38-69.7,76-139.5,114.1-209.3C1718.9,1232.2,1735.7,1201.4,1752.5,1170.5z"/>
	<path class="st5" d="M1243.4,1344.8l509.1-174.2l-0.1,0l-0.1,0c-210.2,53.1-419.9,106-630,159c1,0.7,1.6,1,2.1,1.4
		c37.1,21.4,74.1,42.9,111.2,64.3c1.4,0.8,2.8,1.6,4.2,2.4c1.6,0.9,3,1.1,4.8,0.4c18-7,36.1-13.9,54.1-20.9L1243.4,1344.8z"/>
	<path class="st5" d="M1432.8,1505.4l228.7-267.4c-99.7,82.5-199.5,165-298.8,247.1c-2.9,2.4-5.8,4.8-8.7,7.2
		c5,8.2,10.1,16.5,15.1,24.7c34.3,56.2,68.6,112.3,102.8,168.3c11.5-21.1,23.1-42.3,34.6-63.5l0,0L1432.8,1505.4z"/>
	<path class="st8" d="M452.7,1577.7c34.5,0,67.8-5.7,98.8-16.2c9.9-3.4,19.6-7.2,29-11.5c-17.9,4.1-36.4,6.7-55.3,7.8
		c-6.6,0.4-13.2,0.6-19.8,0.6c-187.6,0-339.7-152.1-339.7-339.7c0-29.5,3.8-58.1,10.8-85.4c-20.4,41.1-31.9,87.5-31.9,136.4
		C144.6,1439.5,282.8,1577.7,452.7,1577.7z"/>
	<linearGradient id="SVGID_3_" gradientUnits="userSpaceOnUse" x1="165.6694" y1="1259.8933" x2="760.8016" y2="1259.8933">
		<stop  offset="0" style="stop-color:#F15A29"/>
		<stop  offset="1" style="stop-color:#FBB040"/>
	</linearGradient>
	<path class="st9" d="M505.3,1558.3c6.7,0,13.3-0.2,19.8-0.6c18.9-1.1,37.4-3.7,55.3-7.8c106.3-48.6,180.3-156,180.3-280.3
		c0-169.9-138.2-308.1-308.1-308.1c-81.5,0-155.8,31.8-210.9,83.7c-26.7,25.1-48.8,54.8-65.3,88c-7.1,27.3-10.8,55.9-10.8,85.4
		C165.7,1406.2,317.7,1558.3,505.3,1558.3z M253.4,1200.7c13.4-15.3,33.1-25,55-25c19.7,0,37.7,7.9,50.8,20.6l103.2-51.1
		c0.1-25.6,12.1-48.4,30.8-63.2c13.4-15.3,33.1-25,55-25c38.4,0,69.9,29.7,72.8,67.3c1.8,6.7,2.8,13.8,2.8,21
		c0,44.5-36.2,80.7-80.7,80.7c-19.2,0-37.5-6.7-52.1-19.1l-104.4,51.7l109.9,52.1c13.2-13.2,31.5-21.4,51.7-21.4
		c38.4,0,69.9,29.7,72.8,67.3c1.8,6.7,2.8,13.8,2.8,21c0,44.5-36.2,80.7-80.7,80.7s-80.7-36.2-80.7-80.7c0-0.9,0-1.8,0-2.7
		l-106.1-50.3c-14.7,12.9-33.4,19.9-53.1,19.9c-44.5,0-80.7-36.2-80.7-80.7C222.5,1238.4,234.6,1215.5,253.4,1200.7z"/>
	<path class="st8" d="M222.5,1264.1c0-25.7,12.1-48.6,30.8-63.4c-11.2,12.8-18,29.6-18,48c0,40.3,32.7,73,73,73
		c20.2,0,38.5-8.2,51.7-21.4l115.5,54.8c-0.2,2.4-0.4,4.9-0.4,7.4c0,40.3,32.7,73,73,73c40.3,0,73-32.7,73-73c0-1.9-0.1-3.8-0.2-5.7
		c1.8,6.7,2.8,13.8,2.8,21c0,44.5-36.2,80.7-80.7,80.7s-80.7-36.2-80.7-80.7c0-0.9,0-1.8,0-2.7l-106.1-50.3
		c-14.7,12.9-33.4,19.9-53.1,19.9C258.7,1344.8,222.5,1308.6,222.5,1264.1z M475.2,1130.1c0-18.4,6.8-35.2,18-48
		c-18.7,14.8-30.8,37.6-30.8,63.2l13.3-6.6C475.4,1135.8,475.2,1133,475.2,1130.1z M548.2,1203.1c-19.7,0-37.7-7.9-50.8-20.6
		l-116.5,57.7c0.3,2.8,0.5,5.7,0.5,8.6c0,2.5-0.1,4.9-0.4,7.4l5.6,2.6l104.4-51.7c14.6,12.3,32.8,19.1,52.1,19.1
		c44.5,0,80.7-36.2,80.7-80.7c0-7.3-1-14.3-2.8-21c0.1,1.9,0.2,3.8,0.2,5.7C621.2,1170.4,588.5,1203.1,548.2,1203.1z"/>
	<path class="st4" d="M308.3,1321.8c20.2,0,38.5-8.2,51.7-21.4l115.5,54.8c-0.2,2.4-0.4,4.9-0.4,7.4c0,40.3,32.7,73,73,73
		c40.3,0,73-32.7,73-73c0-1.9-0.1-3.8-0.2-5.7c-2.9-37.7-34.4-67.3-72.8-67.3c-20.2,0-38.5,8.2-51.7,21.4l-109.9-52.1l-5.6-2.6
		c0.2-2.4,0.4-4.9,0.4-7.4c0-2.9-0.2-5.8-0.5-8.6l116.5-57.7c13.1,12.7,31,20.6,50.8,20.6c40.3,0,73-32.7,73-73
		c0-1.9-0.1-3.8-0.2-5.7c-2.9-37.7-34.4-67.3-72.8-67.3c-21.9,0-41.6,9.7-55,25c-11.2,12.8-18,29.6-18,48c0,2.9,0.2,5.8,0.5,8.6
		l-13.3,6.6l-103.2,51.1c-13.1-12.7-31-20.6-50.8-20.6c-21.9,0-41.6,9.7-55,25c-11.2,12.8-18,29.6-18,48
		C235.3,1289.1,268,1321.8,308.3,1321.8z"/>
</g>
</svg>
