<svg version="1.1" id="Layer_1" xmlns="http://www.w3.org/2000/svg" x="0" y="0" viewBox="0 0 1920 1920" xml:space="preserve"><style>.st3{fill:#2b3990}.st4{fill:#fff}.st5{fill:#ccc}.st6{fill:#666}.st8{fill:#ef4136}</style><path d="M1825 1104.4c-1.2-.8-2.5-1.6-3.7-2.3l-10.1-2.5c-3.5.5-7.2.8-10.6 1.7-63.9 16-127.8 32.1-191.7 48.1l56.1-873 4-61.5c2.2-18.2-3.2-36.2-14.8-49.4-11.4-13-27.6-20.3-45.5-20.5-18.1-.3-36.6-.1-54.4 0h-10.1c1.5-16.3 1.6-41.2-18-62.3-22-23.7-51.5-23.4-65.6-23.3l-20.2.2c-65.1.7-132.1 1.4-198.5 2.2-8.8-10.9-19.6-20.1-32.1-27.4-20.2-11.8-43.5-17.6-67.5-16.8h-.2c-2.8.1-5.7.2-8.5.3l-8.4.3c-17.3.6-35.7 1.1-53.4.7-2.8-.1-5.7 0-8.4 0-26.3.9-51.9 8.9-74.1 23.1-9.9 6.4-19.1 14-27.5 22.7l-42.5.5c-61.2.7-122.4 1.3-183.6 2-2 0-3.8 0-5.4.1-9.9.3-36.3 1.2-57.3 21.7-19.1 18.5-21.8 42-22.9 52.1-.2 1.7-.3 3.5-.5 5.2-1.3-.1-2.6-.1-4 0l-6.4.1c-18.9.3-38.4.7-56.2-.1-34.9-1.5-66.8 23.7-72.7 57.4-20.4 116.8-39.8 237.7-58.5 354.7-10.5 65.3-21.3 132.7-32.1 198.7-8 48.5-16 97.1-24 145.6-77.5 11.9-148.9 47.9-205.4 104.4-70.1 70.1-108.7 163.3-108.7 262.5 0 49.8 9.8 98.2 28.4 142.8-24.6 58-32.7 111.9-23.8 160.5 9.1 49.9 35.6 93.5 78.8 129.5 57.8 48.1 144.1 81.7 256.4 99.8 60.9 9.8 128.6 14.8 200.3 14.8 45.8 0 93.2-2 141.4-6.1 120.7-10.1 242.1-32.6 351.2-64.9 102.9-30.5 192.2-69.1 260.2-112.5 24.7 40.5 49.4 81 74.2 121.4.6 1 1.2 2 1.9 3 12.2 17.9 38.9 16.6 49.2-2.4 10.2-18.8 20.4-37.6 30.7-56.4 56.5-103.7 113.1-207.4 169.6-311.1 44.9-82.4 89.8-164.7 134.7-247.1 6.6-12.8 2.5-28.6-9.8-36.5zM813 1537.2c-51.3 15.4-100.1 27.4-146.3 35.9 17.2-12.2 33.4-25.8 48.6-41 19.3-19.3 36.2-40.3 50.5-62.7l148.5 33.9c-32.6 11.9-66.5 23.5-101.3 33.9z"/><path d="M1195.7 332.7c-3.3-.1-6.6-.2-9.9-.2 3.3 0 6.6.1 9.9.2zM850 320.4l-1.8-.3 1.8.3zm-4.8-.9c-.7-.1-1.4-.3-2.1-.4.7.1 1.4.3 2.1.4zm500.5 3h-.1.1zm6.1-2.2zm-511.6-1.8c-1.4-.3-2.8-.6-4.2-1 1.4.4 2.8.7 4.2 1zm-11.3-2.8c-1.3-.4-2.6-.7-3.9-1.1 1.3.4 2.6.8 3.9 1.1zm-4.8-1.3c-1.7-.5-3.4-1-5-1.6 1.6.5 3.3 1.1 5 1.6zm9.8 2.6c-1-.2-2-.5-3-.8 1 .3 2 .6 3 .8zm580.2-36c-.7.6-1.3 1.2-2 1.8.7-.5 1.4-1.2 2-1.8zm-43.6 31c-.2.1-.4.2-.5.3.1-.1.3-.2.5-.3zm79.7-74.5c-.8 1.3-1.7 2.6-2.5 3.9.9-1.3 1.7-2.6 2.5-3.9zm2-3.3l-1.2 2.1 1.2-2.1zm-4.9 7.8zm-27.8 33.9l-2.8 2.8 2.8-2.8zm-16.7 15zm-26.2 18c-.2.1-.4.2-.5.3.2-.1.3-.2.5-.3zm-558.5 3.6c-1.5-.5-2.9-1-4.4-1.5 1.4.5 2.9 1 4.4 1.5zm546 2.6s-.1 0-.1.1c0-.1.1-.1.1-.1zm116.4-191.7c-1.6-1.8-4-2.8-7.5-3.2 3.6.4 6 1.4 7.5 3.2zM771.2 287.7c6.2 4.8 12.8 9.3 19.9 13.5 3.7 1.9 7.4 3.6 11.1 5.2-3.7-1.6-7.4-3.3-11.1-5.2-7-4.2-13.7-8.7-19.9-13.5zm981.3 882.8h-.2.2c-.1.1 0 .1 0 0zm-164.4 301.7c38-69.7 76-139.5 114.1-209.3-38.1 69.9-76.1 139.6-114.1 209.3zm72.3-234.2l.9-.3-.9.3zM812.9 310.6c-3.6-1.3-7.1-2.7-10.7-4.3 3.5 1.6 7.1 3 10.7 4.3zm-62.8-42.3c2.5 2.7 5 5.3 7.7 7.8-2.7-2.5-5.2-5.1-7.7-7.8zm11.8 11.6l-3.9-3.6c1.3 1.3 2.6 2.5 3.9 3.6zm-12.3-12.2zm21.5 19.8c-3-2.4-6-4.8-8.8-7.3 2.8 2.5 5.7 5 8.8 7.3zm-30.3-30.2c.5.6 1 1.2 1.4 1.8-.5-.6-.9-1.2-1.3-1.7 0-.1-.1-.1-.1-.1z" fill="none"/><path d="M1417.7 1331.5c19.1-7.4 38.2-14.7 57.3-22.1-19.1 7.4-38.2 14.8-57.3 22.1z" fill="#ef4164"/><linearGradient id="SVGID_1_" gradientUnits="userSpaceOnUse" x1="1087.184" y1="293.094" x2="911.184" y2="1569.094"><stop offset="0" stop-color="#27aae1"/><stop offset="1" stop-color="#2b3990"/></linearGradient><path d="M822.6 1301.7c71.6 13.9 143.2 27.9 214.2 42.2 28 16.4 56.1 32.7 84.2 49 6.8 4 13.6 7.9 20.4 11.9-20.7 10.3-45.6 22.3-73.7 35.1L807 1381.1c8-25.6 13.3-52.2 15.6-79.4zM598.3 505c3-19.6 18.6-32.9 39.5-29.9 134 8.4 268.1 16.9 402.1 25.3 134 8.4 268.1 16.9 402.1 25.3 22.2 1.3 35.3 18.4 31.9 40-15.4 209.7-30.8 419.4-46.2 629.2 27.6-6.9 55.2-13.9 82.8-20.8l67.5-968.9c-7.9 0-15.8.1-23.6.1-6 0-11.9.1-17.8.1-1.2 0-1.8.1-2.1.2-.3.3-.9 1.2-1.6 2.7-1.7 3.9-3.3 8.2-4.9 12.7-1.6 4.5-3.4 9.2-5.4 14-18.2 43.3-46 80.5-80.5 107.7-.2.2-.5.4-.7.5-29.9 22.2-75.4 51.1-132.6 53-3.4.1-6.9.1-10.4.1-27.7-.7-55.4-1.4-83.2-2.1-82.5-2-167-4-250.2-7.2-28.6-.8-56.9-1.7-85-2.6h-1l-1-.1c-9.3-.6-18.1-1.5-26.7-2.6-59.3-4.2-112.8-28.7-150.9-69.2-27.2-28.9-44.4-64.1-51.1-104.6-.1-.5-.2-.9-.2-1.2-.7-.1-1.5-.1-2.6-.1l-6.4.1c-19.8.3-40.3.7-60-.2-4-.2-8.3 3.2-9 7.1-20.3 116.4-39.6 237.2-58.4 353.9-10.5 65.3-21.3 132.9-32.2 199-7.2 43.9-14.5 87.9-21.7 131.9 26.9.4 53.4 3.7 79 9.7 20.3-134.3 40.3-269 60.5-403.1z" fill="url(#SVGID_1_)"/><path class="st3" d="M1359.7 281.7c-37.1 21.1-74.6 29.7-117.5 28.6-127.6-2.9-255.2-6.3-382.7-10.3-33.1-2.1-61.4-7.8-91.1-22.8-10-5.9-19.2-12.5-27.5-19.8.4.6.9 1.2 1.3 1.7.1.2.3.3.4.5 2.2 2.8 4.5 5.5 6.9 8.1.2.2.4.4.5.6 2.5 2.7 5 5.3 7.7 7.8l.2.2 3.9 3.6.3.3c2.8 2.5 5.8 5 8.8 7.3.1 0 .1.1.2.1 6.2 4.8 12.8 9.3 19.9 13.5 3.7 1.9 7.4 3.6 11.1 5.2 3.6 1.5 7.1 3 10.7 4.3.3.1.5.2.8.3 1.5.5 2.9 1 4.4 1.5l.9.3c1.7.6 3.4 1.1 5 1.6.3.1.6.2 1 .3 1.3.4 2.6.7 3.9 1.1.7.2 1.3.4 2 .5 1 .3 2 .5 3 .8.7.2 1.4.4 2.1.5 1.4.3 2.8.6 4.2 1 .9.2 1.9.4 2.9.6.7.1 1.4.3 2.1.4 1 .2 2 .4 2.9.5l1.8.3c2.4.4 4.9.8 7.3 1.1.6 0 1.3.1 1.9.1 35.1 1.9 70.9 3.5 106.9 4.9 73.2 2.2 146.5 4.1 219.7 5.9 3.3.1 6.6.2 9.9.2 23 .6 46 1.1 69.1 1.6 5.5.1 10.9.1 16.2-.1 22.7-.8 43.9-4.5 64.6-11.7h.1c2-.7 4.1-1.5 6.1-2.2 4.1-1.6 8.1-3.3 12.2-5.1 0 0 .1 0 .1-.1 1.9-.9 3.9-1.8 5.8-2.8.2-.1.4-.2.5-.3 1.9-.9 3.8-1.9 5.6-2.9.2-.1.4-.2.5-.3 1.9-1 3.8-2.1 5.7-3.2 7.2-4.6 14-9.5 20.4-14.8 3.2-2.6 6.4-5.3 9.4-8.1.7-.6 1.3-1.2 2-1.8.8-.8 1.7-1.6 2.5-2.4 1-.9 1.9-1.8 2.8-2.8.5-.5 1-1 1.6-1.5 9.9-10 18.6-20.8 26.3-32.4.1-.2.3-.4.4-.6.9-1.3 1.7-2.6 2.5-3.9.2-.4.5-.8.7-1.1l1.2-2.1c16.2-26.8 26.4-57.2 29.9-89.6 1.3-11.6 1.4-17.9-1.5-21.3-1.6-1.8-4-2.8-7.5-3.2-3.1-.4-7-.5-11.9-.4h-1.6c0 .3-.1.6-.1 1-6.9 66.8-42.2 124.5-99.4 161.3zM794.9 1414.1c72.8 16.6 145.7 33.3 218.5 49.9 19.1-8.1 37.3-16.2 54.3-23.9l-260.7-59c-3.5 11.2-7.5 22.2-12.1 33zm751.1-249c19.1-297.5 38.3-595 57.4-892.4l4-62.5c0-.7.1-1.5.2-2.2.2-1.3 0-2.2-.1-2.7-9.7-.1-19.6-.1-29.4-.1l-67.5 968.9 35.4-9z"/><path class="st4" d="M1442 525.7c-134-8.5-268.1-16.9-402.1-25.3-134-8.5-268.1-16.9-402.1-25.3-20.9-3-36.5 10.3-39.5 29.9-20.2 134.1-40.2 268.8-60.4 403.1 65.7 15.4 126.2 48.5 175.4 97 109.1 17.8 218.9 36.6 328.3 54.9 22.8 5.4 42.3 29.2 39.2 53-1.9 23.8-28 39.7-49.9 36.3-61.5-9.5-125.6-22.7-188.4-34.1-18.9-3.4-37.9-7-56.9-10.6 25.2 50.6 38.5 106.8 38.5 164.9 0 10.8-.5 21.5-1.4 32.1 71.6 13.9 143.2 27.9 214.2 42.2-.4-.2-.8-.4-1.2-.7-11.1-6.5-16.2-16.9-14.4-29.4 1.6-10.6 10.2-19.5 22-22.4 76.2-19.1 152.4-38.3 228.6-57.4 52-13.1 103.9-26.1 155.9-39.2 15.4-209.7 30.8-419.4 46.2-629.2 3.4-21.4-9.8-38.5-32-39.8zm-335.9 371.7c-3.1 25-28.7 44.9-54.6 40.3-57.8-10.2-119.6-17-179.5-25.4-59.3-8.3-119.7-18-178-25-20.5-2.5-39.6-17.4-44.4-36.6-4.5-18.4 7.9-37.5 25.6-45.4 8.9-4 20.9-5.3 30.9-4.1 118.5 14.3 236.9 29.1 355.4 44 25.8 2.4 47.7 27.2 44.6 52.2zm17.1-219.3c-2.5 21.9-25.4 41.4-46.9 40.1-59.6-3.8-123.3-12.4-184.9-18.6-59.7-6-120.6-13.5-179.1-18.1-21.1-1.7-37.7-20.6-37.3-40.9.4-23.8 23.1-44.3 47.3-42.7C843.9 608 965.5 618.4 1087 629c22 3.6 38.6 27.6 36.2 49.1zm210.3 480.6c-2.4 23.4-24.1 40.8-47.7 36.9-11.4-1.9-23.1-4.2-34.7-6.3-11.1-2-22.1-4-33.2-6-25-4.5-42.9-27-41.5-51.8-.9-25.5 24.9-45.4 49.9-40.8 22.9 4.1 46 7.7 68.9 11.7 25.8 4.1 40.7 33.4 38.3 56.3zm20.7-218.2c-4.3 20.9-29.8 34.3-49.2 32.6-10.1-.9-20.8-2.9-31.2-4.3-8.9-1.3-17.8-2.5-26.7-3.8-23.2-3.3-47.4-22.3-46.8-47-1.5-26.4 19.8-50.3 47.6-48.8 25.9 1.9 50.6 6.3 75.6 12.2 26.1 6 35.8 36.1 30.7 59.1zm13-238.7c-1.8 23.3-21.8 44.2-46.8 41.1-10.4-1.3-21.4-2.2-32-3.2-11.2-1.1-22.6-2.5-33.5-3.4-24.2-1.9-40.2-24.8-38.9-47.3.9-25.2 20.3-47.4 47.3-45.2 21.5 1.8 43.4 3.5 65.1 5.6 27.1 1.2 41.3 28.7 38.8 52.4zM311.9 1663.2c5.2 1.9 10.6 3.7 16 5.4-5.4-1.7-10.7-3.5-16-5.4zm520.5-65c-119.1 36-226.7 54.1-320.2 54.1-8.6 0-17-.2-25.3-.5-128.5-4.7-229.3-45.8-299.5-122l.3-.3c-2-2-3.9-4-5.8-6 0 .1.1.2.1.3 2 5.4 4.3 10.8 7 16.1 2.7 5.3 5.8 10.5 9.1 15.5 3.4 5.1 7.1 10 11 14.8 3.9 4.8 8.1 9.5 12.5 14.1s8.9 9 13.7 13.3c18.9 17.3 40.4 32.4 63 46 11.3 6.8 22.9 13.1 34.8 19 11.9 5.9 24 11.5 36.4 16.3l-.1.5c210.7 45.6 524.8-23.7 730.6-82.2 24.9-17.2 56.6-38.9 86.9-59.5.3-2.2.5-4.5.8-6.7l-159.1 37.2c33.1-23.2 115-79.1 168.6-115.6.2-1.5.4-3.1.6-4.6-67.2 35-206.2 102.1-365.4 150.2z"/><path class="st5" d="M369.3 1679.5l-.1.5c-13.1-2.9-26-6.5-38.8-10.6-.8-.3-1.6-.5-2.5-.8-5.4-1.7-10.8-3.5-16-5.4-6.6-2.3-13.1-4.8-19.6-7.4-25.1-10.2-49.6-22.3-72.8-37.6-5.8-3.8-11.5-7.8-17.1-12.1-5.6-4.3-11.1-8.7-16.3-13.5-5.3-4.8-10.4-9.8-15.4-15.2-4.9-5.4-9.6-11-14-17-3.6-4.8-6.9-9.9-9.9-15.1 3.1 42 22.7 77.8 59 108 48.2 40.1 126.2 69.8 225.6 85.9 94.8 15.3 207.5 18.1 326.1 8.1 149.6-12.6 294.8-43.9 414.5-87.4.5-4.5 1.1-9.5 1.7-14.6l-66 15.5c15.4-10.8 41.4-28.7 70.1-48.4.6-4.8 1-8.1 1.1-8.8.4-3.5.8-6.9 1.3-10.4l-111.8 26.2c8-5.6 18.9-13.2 31.5-21.9-205.8 58.2-519.9 127.6-730.6 82z"/><path class="st6" d="M1061.6 845.2c-118.4-14.9-236.9-29.7-355.4-44-10-1.2-22 .1-30.9 4.1-17.7 7.9-30.1 27-25.6 45.4 4.7 19.2 23.9 34.1 44.4 36.6 58.2 7 118.7 16.7 178 25 59.8 8.4 121.7 15.2 179.5 25.4 25.9 4.6 51.5-15.3 54.6-40.3 3-25-18.9-49.8-44.6-52.2zm25.4-216.4c-121.6-10.6-243.1-21-364.7-31.1-24.2-1.6-46.9 18.9-47.3 42.7-.4 20.3 16.2 39.3 37.3 40.9 58.5 4.6 119.4 12.1 179.1 18.1 61.6 6.2 125.3 14.9 184.9 18.6 21.5 1.4 44.4-18.2 46.9-40.1 2.4-21.3-14.2-45.3-36.2-49.1zm-56.2 520.5c22 3.4 48-12.6 49.9-36.3 3.1-23.7-16.3-47.5-39.2-53-109.4-18.3-219.2-37-328.3-54.9.7.6 1.3 1.3 2 1.9 29 29 52.6 61.9 70.3 97.6 19 3.6 38 7.1 56.9 10.6 62.8 11.4 126.9 24.7 188.4 34.1zm292.8-268c-25-5.9-49.7-10.3-75.6-12.2-27.9-1.5-49.1 22.4-47.6 48.8-.6 24.8 23.6 43.7 46.8 47 8.9 1.3 17.8 2.5 26.7 3.8 10.4 1.5 21 3.4 31.2 4.3 19.4 1.7 44.9-11.7 49.2-32.6 5-22.9-4.7-53-30.7-59.1zm-28.2 221c-22.9-4-46-7.6-68.9-11.7-25-4.6-50.9 15.4-49.9 40.8-1.4 24.8 16.5 47.3 41.5 51.8 11 2 22.1 4 33.2 6 11.6 2.1 23.2 4.4 34.7 6.3 23.6 3.9 45.3-13.5 47.7-36.9 2.2-22.8-12.7-52.1-38.3-56.3z"/><linearGradient id="SVGID_2_" gradientUnits="userSpaceOnUse" x1="1096.172" y1="26.517" x2="1062.172" y2="366.517"><stop offset="0" stop-color="#27aae1"/><stop offset="1" stop-color="#2b3990"/></linearGradient><path d="M740.8 257.3l.1.1c8.3 7.2 17.5 13.8 27.5 19.8 29.7 15 58 20.7 91.1 22.8 127.5 4.1 255.1 7.4 382.6 10.4 42.9 1.1 80.4-7.5 117.5-28.6 57.2-36.8 92.5-94.6 99.8-161 0-.3.1-.6.1-1-80.1.8-160.3 1.6-240.4 2.7-8.6.1-13.7-1.2-18.1-10.4-2.1-5.1-5-9.7-8.4-13.7-4.3-5.1-9.5-9.3-15.2-12.5-9.8-5.5-21.3-8.3-33.1-7.9h-.2c-5.6.2-11.3.4-16.9.6-19 .6-38.1 1.2-56.9.7-1.7-.1-3.3 0-4.9 0-31.3 1-57 19-72.9 45.5-6.4.1-11.7.1-17 .2-79.7.9-159.3 1.7-239 2.6-1.4 0-2.7 0-4 .1-16.2.5-19.1 3.7-21 20.1-4.9 41.5 6 79.1 29.3 109.5zm355.8-124.6c23.8 0 44.2 14.8 52.5 35.7 2.5 6.4 3.9 13.4 3.9 20.8 0 31.2-25.3 56.4-56.4 56.4-16.6 0-31.6-7.2-41.9-18.7-9-10-14.5-23.3-14.5-37.8 0-31.1 25.2-56.4 56.4-56.4z" fill="url(#SVGID_2_)"/><path class="st6" d="M1328.5 649.4c-21.7-2.1-43.6-3.8-65.1-5.6-26.9-2.2-46.4 20-47.3 45.2-1.3 22.5 14.7 45.4 38.9 47.3 10.9.9 22.3 2.3 33.5 3.4 10.7 1.1 21.7 1.9 32 3.2 25 3.1 45-17.8 46.8-41.1 2.4-23.7-11.8-51.2-38.8-52.4z"/><path class="st3" d="M1040.2 189.2c0 14.5 5.5 27.8 14.5 37.8-2.5-6.4-4-13.5-4-20.8 0-31.2 25.3-56.4 56.4-56.4 16.7 0 31.6 7.2 42 18.7-8.3-20.9-28.7-35.7-52.5-35.7-31.2-.1-56.4 25.2-56.4 56.4z"/><path class="st4" d="M1107.2 149.7c-31.2 0-56.4 25.3-56.4 56.4 0 7.3 1.4 14.4 4 20.8 10.3 11.5 25.3 18.7 41.9 18.7 31.2 0 56.4-25.3 56.4-56.4 0-7.3-1.4-14.3-3.9-20.8-10.4-11.5-25.4-18.7-42-18.7zm645.3 1020.8c0 .1-.1.1 0 0l-509.1 174.2 55.5 32.6c6.9-2.7 13.9-5.3 20.8-8 32.7-12.6 65.4-25.2 98-37.8 19.1-7.4 38.2-14.7 57.3-22.1 61.4-23.7 122.8-47.3 184.3-71 .4-.2.8-.3 1.2-.4l.9-.3v.1c0 .1.1.2.1.2l-228.7 267.4 73.7 116.4c27.2-49.8 54.3-99.7 81.5-149.6 38-69.7 76-139.5 114.1-209.3 16.8-30.7 33.6-61.5 50.4-92.4z"/><path class="st5" d="M1243.4 1344.8l509.1-174.2h-.2c-210.2 53.1-419.9 106-630 159 1 .7 1.6 1 2.1 1.4 37.1 21.4 74.1 42.9 111.2 64.3l4.2 2.4c1.6.9 3 1.1 4.8.4 18-7 36.1-13.9 54.1-20.9l-55.3-32.4zm189.4 160.6l228.7-267.4c-99.7 82.5-199.5 165-298.8 247.1l-8.7 7.2c5 8.2 10.1 16.5 15.1 24.7 34.3 56.2 68.6 112.3 102.8 168.3 11.5-21.1 23.1-42.3 34.6-63.5l-73.7-116.4z"/><path class="st8" d="M452.7 1577.7c34.5 0 67.8-5.7 98.8-16.2 9.9-3.4 19.6-7.2 29-11.5-17.9 4.1-36.4 6.7-55.3 7.8-6.6.4-13.2.6-19.8.6-187.6 0-339.7-152.1-339.7-339.7 0-29.5 3.8-58.1 10.8-85.4-20.4 41.1-31.9 87.5-31.9 136.4 0 169.8 138.2 308 308.1 308z"/><linearGradient id="SVGID_3_" gradientUnits="userSpaceOnUse" x1="165.669" y1="1259.893" x2="760.802" y2="1259.893"><stop offset="0" stop-color="#f15a29"/><stop offset="1" stop-color="#fbb040"/></linearGradient><path d="M505.3 1558.3c6.7 0 13.3-.2 19.8-.6 18.9-1.1 37.4-3.7 55.3-7.8 106.3-48.6 180.3-156 180.3-280.3 0-169.9-138.2-308.1-308.1-308.1-81.5 0-155.8 31.8-210.9 83.7-26.7 25.1-48.8 54.8-65.3 88-7.1 27.3-10.8 55.9-10.8 85.4.1 187.6 152.1 339.7 339.7 339.7zm-251.9-357.6c13.4-15.3 33.1-25 55-25 19.7 0 37.7 7.9 50.8 20.6l103.2-51.1c.1-25.6 12.1-48.4 30.8-63.2 13.4-15.3 33.1-25 55-25 38.4 0 69.9 29.7 72.8 67.3 1.8 6.7 2.8 13.8 2.8 21 0 44.5-36.2 80.7-80.7 80.7-19.2 0-37.5-6.7-52.1-19.1l-104.4 51.7 109.9 52.1c13.2-13.2 31.5-21.4 51.7-21.4 38.4 0 69.9 29.7 72.8 67.3 1.8 6.7 2.8 13.8 2.8 21 0 44.5-36.2 80.7-80.7 80.7s-80.7-36.2-80.7-80.7v-2.7l-106.1-50.3c-14.7 12.9-33.4 19.9-53.1 19.9-44.5 0-80.7-36.2-80.7-80.7 0-25.4 12.1-48.3 30.9-63.1z" fill="url(#SVGID_3_)"/><path class="st8" d="M222.5 1264.1c0-25.7 12.1-48.6 30.8-63.4-11.2 12.8-18 29.6-18 48 0 40.3 32.7 73 73 73 20.2 0 38.5-8.2 51.7-21.4l115.5 54.8c-.2 2.4-.4 4.9-.4 7.4 0 40.3 32.7 73 73 73s73-32.7 73-73c0-1.9-.1-3.8-.2-5.7 1.8 6.7 2.8 13.8 2.8 21 0 44.5-36.2 80.7-80.7 80.7s-80.7-36.2-80.7-80.7v-2.7l-106.1-50.3c-14.7 12.9-33.4 19.9-53.1 19.9-44.4.1-80.6-36.1-80.6-80.6zm252.7-134c0-18.4 6.8-35.2 18-48-18.7 14.8-30.8 37.6-30.8 63.2l13.3-6.6c-.3-2.9-.5-5.7-.5-8.6zm73 73c-19.7 0-37.7-7.9-50.8-20.6l-116.5 57.7c.3 2.8.5 5.7.5 8.6 0 2.5-.1 4.9-.4 7.4l5.6 2.6 104.4-51.7c14.6 12.3 32.8 19.1 52.1 19.1 44.5 0 80.7-36.2 80.7-80.7 0-7.3-1-14.3-2.8-21 .1 1.9.2 3.8.2 5.7 0 40.2-32.7 72.9-73 72.9z"/><path class="st4" d="M308.3 1321.8c20.2 0 38.5-8.2 51.7-21.4l115.5 54.8c-.2 2.4-.4 4.9-.4 7.4 0 40.3 32.7 73 73 73s73-32.7 73-73c0-1.9-.1-3.8-.2-5.7-2.9-37.7-34.4-67.3-72.8-67.3-20.2 0-38.5 8.2-51.7 21.4l-109.9-52.1-5.6-2.6c.2-2.4.4-4.9.4-7.4 0-2.9-.2-5.8-.5-8.6l116.5-57.7c13.1 12.7 31 20.6 50.8 20.6 40.3 0 73-32.7 73-73 0-1.9-.1-3.8-.2-5.7-2.9-37.7-34.4-67.3-72.8-67.3-21.9 0-41.6 9.7-55 25-11.2 12.8-18 29.6-18 48 0 2.9.2 5.8.5 8.6l-13.3 6.6-103.2 51.1c-13.1-12.7-31-20.6-50.8-20.6-21.9 0-41.6 9.7-55 25-11.2 12.8-18 29.6-18 48 0 40.2 32.7 72.9 73 72.9z"/></svg>